<svg xmlns="http://www.w3.org/2000/svg" version="1.1" xmlns:xlink="http://www.w3.org/1999/xlink" xmlns:svgjs="http://svgjs.dev/svgjs" width="1500" height="1464" viewBox="0 0 1500 1464"><g transform="matrix(1,0,0,1,-1.5479255010541237,-2.3612903225806576)"><svg viewBox="0 0 254 248" data-background-color="#4ea9f3" preserveAspectRatio="xMidYMid meet" height="1464" width="1500" xmlns="http://www.w3.org/2000/svg" xmlns:xlink="http://www.w3.org/1999/xlink"><g id="tight-bounds" transform="matrix(1,0,0,1,0.26211538484517405,0.4000000000000057)"><svg viewBox="0 0 253.47576923030962 247.2" height="247.2" width="253.47576923030962"><g><svg viewBox="0 0 395.52 385.7273785849063" height="247.2" width="253.47576923030962"><g transform="matrix(1,0,0,1,0,262.3116552742299)"><svg viewBox="0 0 395.52 123.4157233106764" height="123.4157233106764" width="395.52"><g id="textblocktransform"><svg viewBox="0 0 395.52 123.4157233106764" height="123.4157233106764" width="395.52" id="textblock"><g><svg viewBox="0 0 395.52 70.46276410450587" height="70.46276410450587" width="395.52"><g transform="matrix(1,0,0,1,0,0)"><svg width="395.52" viewBox="1.5 -46.2 264.08 47.050000000000004" height="70.46276410450587" data-palette-color="#fcdb7c"><path d="M18.05-35.85Q21.75-35.85 24.4-32.8L24.4-32.8 21.35-30.3Q19.95-31.8 18.53-32.68 17.1-33.55 15.3-33.55L15.3-33.55Q13.65-33.55 12.1-32.85 10.55-32.15 9.58-30.88 8.6-29.6 8.6-28L8.6-28Q8.6-26.4 9.6-25.05 10.6-23.7 12.18-22.93 13.75-22.15 15.45-22.15L15.45-22.15Q16.1-22.15 16.73-22.2 17.35-22.25 17.75-22.5L17.75-22.5 18.2-21.1Q13.85-19.8 10.4-16.98 6.95-14.15 6.95-10.15L6.95-10.15Q6.95-7.15 8.7-5.23 10.45-3.3 13.5-3.3L13.5-3.3Q16-3.3 18.43-4.28 20.85-5.25 22.7-6.8 24.55-8.35 25.55-10L25.55-10 26.7-9Q24.25-4.9 20.15-2.18 16.05 0.55 11.3 0.55L11.3 0.55Q8.5 0.55 6.28-0.58 4.05-1.7 2.78-3.73 1.5-5.75 1.5-8.4L1.5-8.4Q1.5-12 4.25-14.93 7-17.85 10.95-19.6L10.95-19.6Q8.45-20.2 6.95-21.98 5.45-23.75 5.45-26.1L5.45-26.1Q5.45-29.25 7.43-31.45 9.4-33.65 12.33-34.75 15.25-35.85 18.05-35.85L18.05-35.85ZM50.95-4.1L51.6-3.25Q50.65-1.8 49.4-0.73 48.15 0.35 47.25 0.35L47.25 0.35Q45.55 0.35 43.5-2.2 41.45-4.75 38.6-9.5L38.6-9.5Q37.75-6.4 36.82-4.35 35.9-2.3 34.25-0.98 32.6 0.35 30.05 0.35L30.05 0.35Q27.95 0.35 26.5-1.15L26.5-1.15 29.05-6.6Q29.35-6.25 30.17-5.85 31-5.45 31.6-5.45L31.6-5.45Q33.8-5.45 35.07-7.05 36.35-8.65 37.3-11.6L37.3-11.6Q34.35-16.55 32.37-19.1 30.4-21.65 28.8-21.65L28.8-21.65Q27.85-21.65 27.15-21.1L27.15-21.1 26.55-21.95Q27.55-23.4 28.77-24.43 30-25.45 31.05-25.45L31.05-25.45Q32.6-25.45 34.47-23.2 36.35-20.95 38.85-16.85L38.85-16.85Q40.15-21.25 42-23.65 43.85-26.05 47.45-26.05L47.45-26.05Q49.8-26.05 51.1-24.45L51.1-24.45 48.8-19.2Q48.3-19.6 47.47-19.93 46.65-20.25 45.9-20.25L45.9-20.25Q43.7-20.25 42.4-18.82 41.1-17.4 40.1-14.7L40.1-14.7Q42.45-10.8 43.82-8.7 45.2-6.6 46.67-5.08 48.15-3.55 49.4-3.55L49.4-3.55Q49.9-3.55 50.95-4.1L50.95-4.1ZM63.05-38.3L63.05-25 70-25 68.5-21.8 63.05-21.8 63.05-4.2Q63.05-3.45 63.5-2.98 63.95-2.5 64.7-2.5L64.7-2.5Q65.75-2.5 67.59-4.45L67.59-4.45 68.3-3.7Q67.34-1.8 66.02-0.88 64.7 0.05 63.52 0.28 62.35 0.5 62.35 0.3L62.35 0.3Q62.4 0.3 62.5 0.28 62.6 0.25 62.8 0.25L62.8 0.25Q58.4 0.25 58.4-4.8L58.4-4.8 58.4-21.8 54.65-21.8 56.2-25 58.4-25 58.4-36.5 63.05-38.3ZM84.49-18.9Q82.24-16.55 80.62-12.78 78.99-9 78.99-5.9L78.99-5.9Q78.99-3.2 80.17-1.38 81.34 0.45 83.94 0.45L83.94 0.45Q86.04 0.45 87.97-0.65 89.89-1.75 91.24-3.5L91.24-3.5 90.69-4.25Q89.14-3.2 87.64-3.2L87.64-3.2Q85.29-3.2 84.09-4.85 82.89-6.5 82.89-8.85L82.89-8.85Q82.89-12.65 84.84-16.05 86.79-19.45 89.79-22.65L89.79-22.65 88.99-23.35Q85.49-21.15 82.59-21.15L82.59-21.15Q80.89-21.15 79.49-22.68 78.09-24.2 77.34-26.05L77.34-26.05 73.29-21.5Q73.64-20.5 75.19-19.2L75.19-19.2 71.84-12.2 73.69-11.35 76.94-18.5Q77.79-18.15 78.34-18.05 78.89-17.95 79.84-17.95L79.84-17.95Q82.29-17.95 84.34-19.05L84.34-19.05 84.49-18.9ZM106.59-25.45L107.49-24.4Q103.74-22 101.59-19.05 99.44-16.1 99.44-12.1L99.44-12.1Q99.44-9.85 100.39-7.58 101.34-5.3 103.24-3.8 105.14-2.3 107.79-2.3L107.79-2.3Q109.94-2.3 111.62-3.3 113.29-4.3 114.22-6 115.14-7.7 115.14-9.75L115.14-9.75Q115.14-12.1 113.72-14.55 112.29-17 109.99-18.7 107.69-20.4 105.29-20.6L105.29-20.6Q106.29-21.6 107.69-22.7 109.09-23.8 110.54-24.85L110.54-24.85Q113.99-23.7 115.99-20.48 117.99-17.25 117.99-13.3L117.99-13.3Q117.99-9.8 116.57-6.58 115.14-3.35 112.39-1.33 109.64 0.7 105.89 0.7L105.89 0.7Q102.89 0.7 100.37-0.78 97.84-2.25 96.39-4.8 94.94-7.35 94.94-10.45L94.94-10.45Q94.94-15.9 98.17-19.9 101.39-23.9 106.59-25.45L106.59-25.45ZM141.04-26.7Q143.04-26.05 144.14-24.55 145.24-23.05 145.24-21.1L145.24-21.1Q145.24-20.05 144.96-18.8 144.69-17.55 144.24-16.65L144.24-16.65 135.54 0.55Q135.44 0.65 135.11 0.75 134.79 0.85 134.54 0.85L134.54 0.85Q134.14 0.85 133.76 0.7 133.39 0.55 133.34 0.4L133.34 0.4 124.69-18.5Q123.44-20.8 122.09-20.8L122.09-20.8Q121.59-20.8 121.16-20.48 120.74-20.15 120.59-20.05L120.59-20.05 120.14-20.6Q120.74-22.5 122.36-23.75 123.99-25 125.64-25L125.64-25Q126.59-25 127.31-23.75 128.04-22.5 128.49-21.33 128.94-20.15 129.09-19.8L129.09-19.8 136.09-4.25 140.54-13.3Q140.59-13.45 140.96-14.4 141.34-15.35 141.34-16.25L141.34-16.25Q141.34-19.95 137.34-21.8L137.34-21.8 141.04-26.7ZM162.24-25.45Q164.94-25.45 166.74-24 168.54-22.55 168.54-19.7L168.54-19.7Q168.54-17.4 166.06-14.58 163.59-11.75 160.26-9.4 156.94-7.05 154.59-6.1L154.59-6.1Q155.84-4.1 157.44-3.33 159.04-2.55 161.19-2.55L161.19-2.55Q163.59-2.55 165.96-3.78 168.34-5 169.89-6.95L169.89-6.95 170.49-5.9Q168.04-2.75 165.29-1.07 162.54 0.6 158.54 0.6L158.54 0.6Q155.49 0.6 153.09-0.9 150.69-2.4 149.34-4.93 147.99-7.45 147.99-10.4L147.99-10.4Q147.99-14.1 149.99-17.6 151.99-21.1 155.29-23.28 158.59-25.45 162.24-25.45L162.24-25.45ZM159.64-22.3Q157.44-22.3 155.71-20.9 153.99-19.5 153.01-17.3 152.04-15.1 152.04-12.75L152.04-12.75Q152.04-9.65 153.49-7.45L153.49-7.45Q155.59-8.4 158.04-10.33 160.49-12.25 162.19-14.5 163.89-16.75 163.89-18.6L163.89-18.6Q163.89-22.3 159.64-22.3L159.64-22.3ZM185.63-18.9Q183.38-16.55 181.76-12.78 180.13-9 180.13-5.9L180.13-5.9Q180.13-3.2 181.31-1.38 182.48 0.45 185.08 0.45L185.08 0.45Q187.18 0.45 189.11-0.65 191.03-1.75 192.38-3.5L192.38-3.5 191.83-4.25Q190.28-3.2 188.78-3.2L188.78-3.2Q186.43-3.2 185.23-4.85 184.03-6.5 184.03-8.85L184.03-8.85Q184.03-12.65 185.98-16.05 187.93-19.45 190.93-22.65L190.93-22.65 190.13-23.35Q186.63-21.15 183.73-21.15L183.73-21.15Q182.03-21.15 180.63-22.68 179.23-24.2 178.48-26.05L178.48-26.05 174.43-21.5Q174.78-20.5 176.33-19.2L176.33-19.2 172.98-12.2 174.83-11.35 178.08-18.5Q178.93-18.15 179.48-18.05 180.03-17.95 180.98-17.95L180.98-17.95Q183.43-17.95 185.48-19.05L185.48-19.05 185.63-18.9ZM203.48-38.3L203.48-25 210.43-25 208.93-21.8 203.48-21.8 203.48-4.2Q203.48-3.45 203.93-2.98 204.38-2.5 205.13-2.5L205.13-2.5Q206.18-2.5 208.03-4.45L208.03-4.45 208.73-3.7Q207.78-1.8 206.46-0.88 205.13 0.05 203.96 0.28 202.78 0.5 202.78 0.3L202.78 0.3Q202.83 0.3 202.93 0.28 203.03 0.25 203.23 0.25L203.23 0.25Q198.83 0.25 198.83-4.8L198.83-4.8 198.83-21.8 195.08-21.8 196.63-25 198.83-25 198.83-36.5 203.48-38.3ZM227.43-25.45Q230.13-25.45 231.93-24 233.73-22.55 233.73-19.7L233.73-19.7Q233.73-17.4 231.25-14.58 228.78-11.75 225.45-9.4 222.13-7.05 219.78-6.1L219.78-6.1Q221.03-4.1 222.63-3.33 224.23-2.55 226.38-2.55L226.38-2.55Q228.78-2.55 231.15-3.78 233.53-5 235.08-6.95L235.08-6.95 235.68-5.9Q233.23-2.75 230.48-1.07 227.73 0.6 223.73 0.6L223.73 0.6Q220.68 0.6 218.28-0.9 215.88-2.4 214.53-4.93 213.18-7.45 213.18-10.4L213.18-10.4Q213.18-14.1 215.18-17.6 217.18-21.1 220.48-23.28 223.78-25.45 227.43-25.45L227.43-25.45ZM224.83-22.3Q222.63-22.3 220.9-20.9 219.18-19.5 218.2-17.3 217.23-15.1 217.23-12.75L217.23-12.75Q217.23-9.65 218.68-7.45L218.68-7.45Q220.78-8.4 223.23-10.33 225.68-12.25 227.38-14.5 229.08-16.75 229.08-18.6L229.08-18.6Q229.08-22.3 224.83-22.3L224.83-22.3ZM260.83-46.2L260.83-4.45Q260.83-3.75 261.15-3.18 261.48-2.6 262.18-2.6L262.18-2.6Q262.88-2.6 263.58-3.23 264.28-3.85 264.63-4.6L264.63-4.6 265.58-3.8Q264.78-2.1 263.3-0.93 261.83 0.25 260.43 0.25L260.43 0.25Q258.13 0.25 257.08-1.05 256.03-2.35 256.08-5.55L256.08-5.55 255.88-5.55Q252.83 0.6 248.43 0.6L248.43 0.6Q244.08 0.6 241.75-2.43 239.43-5.45 239.43-10L239.43-10Q239.43-13.6 240.98-17.15 242.53-20.7 245.4-23 248.28-25.3 252.03-25.3L252.03-25.3Q254.38-25.3 256.13-24.1L256.13-24.1 256.13-44.3 260.83-46.2ZM251.73-22.35Q248.93-22.35 247.1-20.6 245.28-18.85 244.43-16.38 243.58-13.9 243.58-11.75L243.58-11.75Q243.58-10.05 244.18-8 244.78-5.95 246.13-4.48 247.48-3 249.58-3L249.58-3Q253.38-3 254.75-6.28 256.13-9.55 256.13-13.5L256.13-13.5 256.13-20.35Q255.28-21.25 254.15-21.8 253.03-22.35 251.73-22.35L251.73-22.35Z" opacity="1" transform="matrix(1,0,0,1,0,0)" fill="#fcdb7c" class="wordmark-text-0" data-fill-palette-color="primary" id="text-0"></path></svg></g></svg></g><g transform="matrix(1,0,0,1,75.54432,87.09733160324119)"><svg viewBox="0 0 244.43135999999998 36.31839170743521" height="36.31839170743521" width="244.43135999999998"><g transform="matrix(1,0,0,1,0,0)"><svg width="244.43135999999998" viewBox="2.25 -46.6 412.86 61.35" height="36.31839170743521" data-palette-color="#fcdb7c"><path d="M15.1-36.4Q18.45-36.4 21.45-34.88 24.45-33.35 26.5-30.55L26.5-30.55 22.6-25.75Q21.35-29.25 18.88-31.55 16.4-33.85 13-33.85L13-33.85Q9.75-33.85 7.95-32 6.15-30.15 6.15-27.25L6.15-27.25Q6.15-24.55 7.45-22.75 8.75-20.95 10.6-19.85 12.45-18.75 15.6-17.35L15.6-17.35Q18.6-16 20.33-15 22.05-14 23.25-12.4 24.45-10.8 24.45-8.45L24.45-8.45Q24.5-4.1 21.65-1.75 18.8 0.6 14.25 0.6L14.25 0.6Q10.9 0.6 7.88-0.73 4.85-2.05 3.05-4.75L3.05-4.75 6.95-9.1Q8.65-5.1 11.1-3.43 13.55-1.75 15.85-1.75L15.85-1.75Q18-1.75 19.53-2.93 21.05-4.1 21.05-6L21.05-6Q21.05-7.75 19.98-9.08 18.9-10.4 17.3-11.33 15.7-12.25 12.95-13.5L12.95-13.5Q9.45-15.1 7.35-16.4 5.25-17.7 3.75-19.83 2.25-21.95 2.25-25L2.25-25Q2.25-28.2 3.93-30.83 5.6-33.45 8.55-34.93 11.5-36.4 15.1-36.4L15.1-36.4ZM40.75-25.45L41.65-24.4Q37.9-22 35.75-19.05 33.6-16.1 33.6-12.1L33.6-12.1Q33.6-9.85 34.55-7.58 35.5-5.3 37.4-3.8 39.3-2.3 41.95-2.3L41.95-2.3Q44.1-2.3 45.77-3.3 47.45-4.3 48.37-6 49.3-7.7 49.3-9.75L49.3-9.75Q49.3-12.1 47.87-14.55 46.45-17 44.15-18.7 41.85-20.4 39.45-20.6L39.45-20.6Q40.45-21.6 41.85-22.7 43.25-23.8 44.7-24.85L44.7-24.85Q48.15-23.7 50.15-20.48 52.15-17.25 52.15-13.3L52.15-13.3Q52.15-9.8 50.72-6.58 49.3-3.35 46.55-1.33 43.8 0.7 40.05 0.7L40.05 0.7Q37.05 0.7 34.52-0.78 32-2.25 30.55-4.8 29.1-7.35 29.1-10.45L29.1-10.45Q29.1-15.9 32.32-19.9 35.55-23.9 40.75-25.45L40.75-25.45ZM70.69-46.6Q72.14-46.6 74.12-45.48 76.09-44.35 77.39-42.65L77.39-42.65 74.05-40.8Q73.25-42.45 71.84-43.6 70.44-44.75 68.5-44.75L68.5-44.75Q65.84-44.75 64.72-42.98 63.59-41.2 63.59-38.85L63.59-38.85 63.59-25 74.14-25 72.59-21.8 63.59-21.8 63.59 6.7 58.99 8.9 58.99-21.8 55.74-21.8 57.05-25 58.99-25 58.99-31.75Q58.99-35.65 60.14-39 61.3-42.35 63.89-44.48 66.5-46.6 70.69-46.6L70.69-46.6ZM82.39-38.3L82.39-25 89.34-25 87.84-21.8 82.39-21.8 82.39-4.2Q82.39-3.45 82.84-2.98 83.29-2.5 84.04-2.5L84.04-2.5Q85.09-2.5 86.94-4.45L86.94-4.45 87.64-3.7Q86.69-1.8 85.37-0.88 84.04 0.05 82.87 0.28 81.69 0.5 81.69 0.3L81.69 0.3Q81.74 0.3 81.84 0.28 81.94 0.25 82.14 0.25L82.14 0.25Q77.74 0.25 77.74-4.8L77.74-4.8 77.74-21.8 73.99-21.8 75.54-25 77.74-25 77.74-36.5 82.39-38.3ZM120.69-26.85Q124.24-25.2 124.24-20.95L124.24-20.95Q124.24-19.95 124.02-18.73 123.79-17.5 123.44-16.6L123.44-16.6 116.79-0.85Q116.54 0.05 115.39 0.05L115.39 0.05Q114.09 0.05 113.79-0.9L113.79-0.9 109.69-15.15 104.34-1Q104.04-0.35 103.77-0.08 103.49 0.2 102.89 0.2L102.89 0.2Q102.29 0.2 101.99-0.05 101.69-0.3 101.49-0.75L101.49-0.75 95.89-18.3Q95.49-19.7 94.94-20.25 94.39-20.8 93.39-20.8L93.39-20.8Q92.24-20.8 91.24-19.8L91.24-19.8 90.69-20.6Q91.79-22.6 93.32-23.8 94.84-25 96.74-25L96.74-25Q97.69-25 98.29-24.35 98.89-23.7 99.24-22.88 99.59-22.05 100.24-20.05L100.24-20.05 104.49-6.8 108.84-18.25 107.24-23.75 111.89-25.5 117.19-6.7 120.14-13.85Q120.54-14.65 120.54-16.25L120.54-16.25Q120.54-18.1 119.62-19.53 118.69-20.95 117.04-21.8L117.04-21.8 120.69-26.85ZM141.19-25Q143.64-25 145.81-23.95 147.99-22.9 148.99-20.75L148.99-20.75 145.39-18.8Q144.59-19.95 143.19-20.88 141.79-21.8 140.19-21.8L140.19-21.8Q137.64-21.8 135.74-20.48 133.84-19.15 132.84-16.9 131.84-14.65 131.84-11.9L131.84-11.9Q131.84-7.95 133.19-5.48 134.54-3 137.44-3L137.44-3Q141.54-3 143.09-6.3 144.64-9.6 144.64-13.5L144.64-13.5 144.64-15.75 149.04-17.6 149.04-4.45Q149.04-3.8 149.39-3.2 149.74-2.6 150.44-2.6L150.44-2.6Q151.89-2.6 153.09-4.6L153.09-4.6 153.84-3.8Q153.24-2.1 151.74-0.93 150.24 0.25 148.74 0.25L148.74 0.25Q146.59 0.25 145.56-1.35 144.54-2.95 144.54-5.6L144.54-5.6 144.44-5.6Q143.19-2.95 141.06-1.18 138.94 0.6 136.59 0.6L136.59 0.6Q132.34 0.6 130.16-2.33 127.99-5.25 127.99-10.15L127.99-10.15Q127.99-14.05 129.74-17.48 131.49-20.9 134.51-22.95 137.54-25 141.19-25L141.19-25ZM168.09-18.9Q165.84-16.55 164.21-12.78 162.59-9 162.59-5.9L162.59-5.9Q162.59-3.2 163.76-1.38 164.94 0.45 167.54 0.45L167.54 0.45Q169.64 0.45 171.56-0.65 173.49-1.75 174.84-3.5L174.84-3.5 174.29-4.25Q172.74-3.2 171.24-3.2L171.24-3.2Q168.89-3.2 167.69-4.85 166.49-6.5 166.49-8.85L166.49-8.85Q166.49-12.65 168.44-16.05 170.39-19.45 173.39-22.65L173.39-22.65 172.59-23.35Q169.09-21.15 166.19-21.15L166.19-21.15Q164.49-21.15 163.09-22.68 161.69-24.2 160.94-26.05L160.94-26.05 156.89-21.5Q157.24-20.5 158.79-19.2L158.79-19.2 155.44-12.2 157.29-11.35 160.54-18.5Q161.39-18.15 161.94-18.05 162.49-17.95 163.44-17.95L163.44-17.95Q165.89-17.95 167.94-19.05L167.94-19.05 168.09-18.9ZM192.78-25.45Q195.48-25.45 197.28-24 199.08-22.55 199.08-19.7L199.08-19.7Q199.08-17.4 196.61-14.58 194.13-11.75 190.81-9.4 187.48-7.05 185.13-6.1L185.13-6.1Q186.38-4.1 187.98-3.33 189.58-2.55 191.73-2.55L191.73-2.55Q194.13-2.55 196.51-3.78 198.88-5 200.43-6.95L200.43-6.95 201.03-5.9Q198.58-2.75 195.83-1.07 193.08 0.6 189.08 0.6L189.08 0.6Q186.03 0.6 183.63-0.9 181.23-2.4 179.88-4.93 178.53-7.45 178.53-10.4L178.53-10.4Q178.53-14.1 180.53-17.6 182.53-21.1 185.83-23.28 189.13-25.45 192.78-25.45L192.78-25.45ZM190.18-22.3Q187.98-22.3 186.26-20.9 184.53-19.5 183.56-17.3 182.58-15.1 182.58-12.75L182.58-12.75Q182.58-9.65 184.03-7.45L184.03-7.45Q186.13-8.4 188.58-10.33 191.03-12.25 192.73-14.5 194.43-16.75 194.43-18.6L194.43-18.6Q194.43-22.3 190.18-22.3L190.18-22.3ZM231.18-35.85Q234.88-35.85 237.53-32.8L237.53-32.8 234.48-30.3Q233.08-31.8 231.65-32.68 230.23-33.55 228.43-33.55L228.43-33.55Q226.78-33.55 225.23-32.85 223.68-32.15 222.7-30.88 221.73-29.6 221.73-28L221.73-28Q221.73-26.4 222.73-25.05 223.73-23.7 225.3-22.93 226.88-22.15 228.58-22.15L228.58-22.15Q229.23-22.15 229.85-22.2 230.48-22.25 230.88-22.5L230.88-22.5 231.33-21.1Q226.98-19.8 223.53-16.98 220.08-14.15 220.08-10.15L220.08-10.15Q220.08-7.15 221.83-5.23 223.58-3.3 226.63-3.3L226.63-3.3Q229.13-3.3 231.55-4.28 233.98-5.25 235.83-6.8 237.68-8.35 238.68-10L238.68-10 239.83-9Q237.38-4.9 233.28-2.18 229.18 0.55 224.43 0.55L224.43 0.55Q221.63 0.55 219.4-0.58 217.18-1.7 215.9-3.73 214.63-5.75 214.63-8.4L214.63-8.4Q214.63-12 217.38-14.93 220.13-17.85 224.08-19.6L224.08-19.6Q221.58-20.2 220.08-21.98 218.58-23.75 218.58-26.1L218.58-26.1Q218.58-29.25 220.55-31.45 222.53-33.65 225.45-34.75 228.38-35.85 231.18-35.85L231.18-35.85ZM261.18-25.45Q263.18-25.45 263.78-23.98 264.38-22.5 264.38-19.9L264.38-19.9 264.38-18.35 264.38-4.2Q264.38-3.65 264.73-3.08 265.08-2.5 265.73-2.5L265.73-2.5Q266.58-2.5 267.18-3.05 267.78-3.6 268.38-4.45L268.38-4.45 269.13-3.7Q268.38-2.1 266.88-0.93 265.38 0.25 264.03 0.25L264.03 0.25Q262.03 0.25 260.93-1 259.83-2.25 259.83-4.8L259.83-4.8 259.83-18.05Q259.83-18.8 259.68-19.3 259.53-19.8 258.93-19.8L258.93-19.8Q256.88-19.8 254.73-15.85 252.58-11.9 251.05-7.03 249.53-2.15 249.53-0.6L249.53-0.6 245.18 0.7 245.18-20.7Q245.18-21.4 244.8-21.98 244.43-22.55 243.73-22.55L243.73-22.55Q242.53-22.55 241.13-20.4L241.13-20.4 240.38-21.2Q241.03-23 242.53-24.23 244.03-25.45 245.53-25.45L245.53-25.45Q247.63-25.45 248.65-24.45 249.68-23.45 249.68-21.7L249.68-21.7 249.68-8.55 249.88-8.55Q251.23-13 252.48-16.3 253.73-19.6 255.98-22.53 258.23-25.45 261.18-25.45L261.18-25.45ZM285.42-25.65Q287.82-25.65 290.02-24.33 292.22-23 293.37-20.75L293.37-20.75 289.77-18.8Q289.02-20.55 287.62-21.55 286.22-22.55 284.52-22.55L284.52-22.55Q282.02-22.55 280.15-20.85 278.27-19.15 277.25-16.65 276.22-14.15 276.22-11.9L276.22-11.9Q276.22-8.4 277.7-5.7 279.17-3 282.42-3L282.42-3Q286.12-3 287.52-6.33 288.92-9.65 288.92-13.5L288.92-13.5 288.92-15.75 293.42-17.6 293.42-2.3Q293.42 1.45 291.67 5.45 289.92 9.45 286.85 12.1 283.77 14.75 279.92 14.75L279.92 14.75Q277.17 14.75 275.57 12.85L275.57 12.85 279.82 9.25Q280.17 10.15 281 10.7 281.82 11.25 283.07 11.25L283.07 11.25Q286.82 11.25 287.95 8.47 289.07 5.7 289.07 1.5L289.07 1.5 288.92-2.6Q288.92-4.45 289.27-5.6L289.27-5.6 288.92-5.6Q287.07-2.7 285.35-1.05 283.62 0.6 281.22 0.6L281.22 0.6Q276.92 0.6 274.62-2.23 272.32-5.05 272.32-9.4L272.32-9.4Q272.32-13.65 274.05-17.38 275.77-21.1 278.8-23.38 281.82-25.65 285.42-25.65L285.42-25.65ZM306.32-41.7L304.62-30.05 302.97-29.45 300.92-39.85 306.32-41.7ZM306.27-24.8L306.27-4.2Q306.27-3.45 306.65-2.98 307.02-2.5 307.72-2.5L307.72-2.5Q308.27-2.5 308.94-3 309.62-3.5 310.32-4.45L310.32-4.45 311.12-3.7Q309.97-1.55 308.35-0.65 306.72 0.25 305.37 0.25L305.37 0.25Q303.57 0.25 302.6-0.9 301.62-2.05 301.62-4.8L301.62-4.8 301.62-23 306.27-24.8ZM333.62-25.45Q335.62-25.45 336.22-23.98 336.82-22.5 336.82-19.9L336.82-19.9 336.82-18.35 336.82-4.2Q336.82-3.65 337.17-3.08 337.52-2.5 338.17-2.5L338.17-2.5Q339.02-2.5 339.62-3.05 340.22-3.6 340.82-4.45L340.82-4.45 341.57-3.7Q340.82-2.1 339.32-0.93 337.82 0.25 336.47 0.25L336.47 0.25Q334.47 0.25 333.37-1 332.27-2.25 332.27-4.8L332.27-4.8 332.27-18.05Q332.27-18.8 332.12-19.3 331.97-19.8 331.37-19.8L331.37-19.8Q329.32-19.8 327.17-15.85 325.02-11.9 323.49-7.03 321.97-2.15 321.97-0.6L321.97-0.6 317.62 0.7 317.62-20.7Q317.62-21.4 317.24-21.98 316.87-22.55 316.17-22.55L316.17-22.55Q314.97-22.55 313.57-20.4L313.57-20.4 312.82-21.2Q313.47-23 314.97-24.23 316.47-25.45 317.97-25.45L317.97-25.45Q320.07-25.45 321.09-24.45 322.12-23.45 322.12-21.7L322.12-21.7 322.12-8.55 322.32-8.55Q323.67-13 324.92-16.3 326.17-19.6 328.42-22.53 330.67-25.45 333.62-25.45L333.62-25.45ZM358.87-25.45Q361.56-25.45 363.37-24 365.17-22.55 365.17-19.7L365.17-19.7Q365.17-17.4 362.69-14.58 360.22-11.75 356.89-9.4 353.56-7.05 351.22-6.1L351.22-6.1Q352.47-4.1 354.06-3.33 355.67-2.55 357.81-2.55L357.81-2.55Q360.22-2.55 362.59-3.78 364.97-5 366.51-6.95L366.51-6.95 367.12-5.9Q364.67-2.75 361.92-1.07 359.17 0.6 355.17 0.6L355.17 0.6Q352.12 0.6 349.72-0.9 347.31-2.4 345.97-4.93 344.62-7.45 344.62-10.4L344.62-10.4Q344.62-14.1 346.62-17.6 348.62-21.1 351.92-23.28 355.22-25.45 358.87-25.45L358.87-25.45ZM356.26-22.3Q354.06-22.3 352.34-20.9 350.62-19.5 349.64-17.3 348.67-15.1 348.67-12.75L348.67-12.75Q348.67-9.65 350.12-7.45L350.12-7.45Q352.22-8.4 354.67-10.33 357.12-12.25 358.81-14.5 360.51-16.75 360.51-18.6L360.51-18.6Q360.51-22.3 356.26-22.3L356.26-22.3ZM384.96-25.45Q387.66-25.45 389.46-24 391.26-22.55 391.26-19.7L391.26-19.7Q391.26-17.4 388.79-14.58 386.31-11.75 382.99-9.4 379.66-7.05 377.31-6.1L377.31-6.1Q378.56-4.1 380.16-3.33 381.76-2.55 383.91-2.55L383.91-2.55Q386.31-2.55 388.69-3.78 391.06-5 392.61-6.95L392.61-6.95 393.21-5.9Q390.76-2.75 388.01-1.07 385.26 0.6 381.26 0.6L381.26 0.6Q378.21 0.6 375.81-0.9 373.41-2.4 372.06-4.93 370.71-7.45 370.71-10.4L370.71-10.4Q370.71-14.1 372.71-17.6 374.71-21.1 378.01-23.28 381.31-25.45 384.96-25.45L384.96-25.45ZM382.36-22.3Q380.16-22.3 378.44-20.9 376.71-19.5 375.74-17.3 374.76-15.1 374.76-12.75L374.76-12.75Q374.76-9.65 376.21-7.45L376.21-7.45Q378.31-8.4 380.76-10.33 383.21-12.25 384.91-14.5 386.61-16.75 386.61-18.6L386.61-18.6Q386.61-22.3 382.36-22.3L382.36-22.3ZM408.36-18.9Q406.11-16.55 404.49-12.78 402.86-9 402.86-5.9L402.86-5.9Q402.86-3.2 404.04-1.38 405.21 0.45 407.81 0.45L407.81 0.45Q409.91 0.45 411.84-0.65 413.76-1.75 415.11-3.5L415.11-3.5 414.56-4.25Q413.01-3.2 411.51-3.2L411.51-3.2Q409.16-3.2 407.96-4.85 406.76-6.5 406.76-8.85L406.76-8.85Q406.76-12.65 408.71-16.05 410.66-19.45 413.66-22.65L413.66-22.65 412.86-23.35Q409.36-21.15 406.46-21.15L406.46-21.15Q404.76-21.15 403.36-22.68 401.96-24.2 401.21-26.05L401.21-26.05 397.16-21.5Q397.51-20.5 399.06-19.2L399.06-19.2 395.71-12.2 397.56-11.35 400.81-18.5Q401.66-18.15 402.21-18.05 402.76-17.95 403.71-17.95L403.71-17.95Q406.16-17.95 408.21-19.05L408.21-19.05 408.36-18.9Z" opacity="1" transform="matrix(1,0,0,1,0,0)" fill="#fcdb7c" class="slogan-text-1" data-fill-palette-color="secondary" id="text-1"></path></svg></g></svg></g></svg></g></svg></g><g transform="matrix(1,0,0,1,83.23873986162037,0)"><svg viewBox="0 0 229.04252027675923 229.04252027675923" height="229.04252027675923" width="229.04252027675923"><g><svg></svg></g><g id="icon-0"><svg viewBox="0 0 229.04252027675923 229.04252027675923" height="229.04252027675923" width="229.04252027675923"><g><path d="M0 114.521c0-63.248 51.273-114.521 114.521-114.521 63.248 0 114.521 51.273 114.522 114.521 0 63.248-51.273 114.521-114.522 114.522-63.248 0-114.521-51.273-114.521-114.522zM114.521 222.688c59.739 0 108.167-48.428 108.167-108.167 0-59.739-48.428-108.167-108.167-108.167-59.739 0-108.167 48.428-108.167 108.167 0 59.739 48.428 108.167 108.167 108.167z" data-fill-palette-color="accent" fill="#fcdb7c" stroke="transparent"></path><ellipse rx="113.37604753699581" ry="113.37604753699581" cx="114.52126013837962" cy="114.52126013837962" fill="#fcdb7c" stroke="transparent" stroke-width="0" fill-opacity="1" data-fill-palette-color="accent"></ellipse></g><g transform="matrix(1,0,0,1,57.68238550645912,46.677696827571395)"><svg viewBox="0 0 113.677749263841 135.68712662161644" height="135.68712662161644" width="113.677749263841"><g><svg xmlns="http://www.w3.org/2000/svg" viewBox="6.446998985879804 1.4999978082229135 51.10600329588315 61.000739240875966" x="0" y="0" height="135.68712662161644" width="113.677749263841" class="icon-dxe-0" data-fill-palette-color="quaternary" id="dxe-0"><g data-name="Layer 43" fill="#4ea9f3" data-fill-palette-color="quaternary"><path d="M7.668 13.52A1.96 1.96 0 0 0 9.82 13.092L11.807 11.104 15.935 15.23A1.975 1.975 0 0 0 18.728 15.231L20.178 13.782A1.98 1.98 0 0 0 20.178 10.99L16.05 6.861 18.036 4.876A1.975 1.975 0 0 0 16.64 1.504L8.424 1.5A1.977 1.977 0 0 0 6.449 3.475V11.695A1.97 1.97 0 0 0 7.668 13.52M16.58 3.504L13.929 6.154A1 1 0 0 0 13.929 7.568L18.764 12.368 17.349 13.818 12.514 8.981A1 1 0 0 0 11.1 8.982L8.45 11.695 8.423 3.5ZM45.27 15.23A1.973 1.973 0 0 0 48.065 15.23L52.19 11.103 54.178 13.09A1.975 1.975 0 0 0 57.548 11.693L57.553 3.478A1.975 1.975 0 0 0 55.578 1.5H47.358A1.975 1.975 0 0 0 45.96 4.873L47.95 6.86 43.822 10.987A1.973 1.973 0 0 0 43.822 13.78ZM50.07 7.567A1 1 0 0 0 50.07 6.153L47.357 3.501 55.553 3.476 55.548 11.632 52.898 8.982A1 1 0 0 0 51.484 8.981L46.685 13.815 45.235 12.402ZM32 33.95A5.65 5.65 0 0 1 29.001 33.098 1 1 0 0 1 30.062 31.402 3.77 3.77 0 0 0 33.942 31.402 1 1 0 1 1 35.001 33.098 5.65 5.65 0 0 1 32.002 33.95M20.876 50.75V51.747A0.375 0.375 0 0 1 20.126 51.747V50.75A0.375 0.375 0 0 1 20.876 50.75M43.126 51.747V50.75A0.375 0.375 0 0 1 43.876 50.75V51.747A0.375 0.375 0 0 1 43.126 51.747M56.333 33.374A1.97 1.97 0 0 0 54.18 33.802L52.193 35.79 49.623 33.22A2.02 2.02 0 0 0 46.83 33.22L45.38 34.669A1.98 1.98 0 0 0 45.38 37.462L47.95 40.032 45.965 42.018A2 2 0 0 0 45.72 42.348 5 5 0 0 0 45.208 42.148L36.492 39.549A1.38 1.38 0 0 1 35.502 38.218V37.303A9.65 9.65 0 0 0 41.408 30.623 3.402 3.402 0 0 0 42.533 23.923L42.54 23.882A10.675 10.675 0 1 0 21.463 23.883L21.473 23.94A3.41 3.41 0 0 0 22.289 30.663C22.393 30.663 22.493 30.641 22.596 30.632A9.65 9.65 0 0 0 28.502 37.302V38.219A1.38 1.38 0 0 1 27.512 39.548L18.793 42.148A5 5 0 0 0 18.28 42.349 2 2 0 0 0 18.04 42.023L16.05 40.033 18.621 37.464A1.977 1.977 0 0 0 18.621 34.671L17.171 33.221A2.02 2.02 0 0 0 14.38 33.22L11.809 35.79 9.822 33.804A1.975 1.975 0 0 0 6.452 35.2L6.447 43.416A1.975 1.975 0 0 0 8.422 45.393H15.667A4.7 4.7 0 0 0 15.501 46.577V59.06A1.91 1.91 0 0 0 16.978 60.932 52 52 0 0 0 20.338 61.597 71.6 71.6 0 0 0 32 62.5 71.6 71.6 0 0 0 43.665 61.597 52 52 0 0 0 47.025 60.932 1.91 1.91 0 0 0 48.5 59.06V46.577A4.7 4.7 0 0 0 48.335 45.39L55.576 45.394A1.977 1.977 0 0 0 57.551 43.419V35.199A1.97 1.97 0 0 0 56.333 33.373M43.19 27.247A1.417 1.417 0 0 1 41.773 28.663H41.765L42.21 25.91A1.44 1.44 0 0 1 43.19 27.247M25.395 16.553A8.675 8.675 0 0 1 40.665 22.626C40.43 22.422 40.196 22.22 39.969 21.993A12.8 12.8 0 0 1 38.077 19.602 1 1 0 0 0 36.815 19.206 12.74 12.74 0 0 1 27.188 19.206 1 1 0 0 0 25.927 19.602 12.8 12.8 0 0 1 24.035 21.992C23.807 22.22 23.572 22.422 23.338 22.625A8.66 8.66 0 0 1 25.395 16.553M20.873 27.247A1.43 1.43 0 0 1 21.796 25.934L22.237 28.658A1.415 1.415 0 0 1 20.873 27.248M24.397 29.48L23.658 24.92A14.7 14.7 0 0 0 27.172 21.353 15.25 15.25 0 0 0 36.832 21.353 14.7 14.7 0 0 0 40.344 24.92L39.606 29.48A7.704 7.704 0 0 1 24.397 29.48M30.501 38.218V37.828A9.3 9.3 0 0 0 33.501 37.829V38.219A3.36 3.36 0 0 0 35.853 41.438 10.2 10.2 0 0 1 32 42.163 10.4 10.4 0 0 1 28.15 41.44 3.36 3.36 0 0 0 30.5 38.218M8.451 35.262L11.102 37.912A1 1 0 0 0 12.517 37.912L15.757 34.635 17.207 36.05 13.93 39.326A1 1 0 0 0 13.93 40.74L16.643 43.393 8.447 43.418ZM17.502 57.027L19.501 57.527V59.413A49 49 0 0 1 17.501 59ZM21.501 59.742V56.747A0.99 0.99 0 0 0 20.876 55.835V54.747A0.375 0.375 0 0 0 20.126 54.747V55.623L17.501 54.966V46.577A2.64 2.64 0 0 1 19.368 44.064L25.566 42.215C26.776 43.34 29.4 44.163 32.001 44.163 34.584 44.163 37.214 43.328 38.425 42.212L44.633 44.064A2.64 2.64 0 0 1 46.501 46.577V54.967L43.876 55.622V54.747A0.375 0.375 0 0 0 43.126 54.747V55.835A0.99 0.99 0 0 0 42.501 56.747V59.742A75.8 75.8 0 0 1 21.501 59.742M44.501 59.413V57.527L46.501 57.027V59C45.861 59.149 45.187 59.285 44.501 59.413M47.421 43.39L50.071 40.74A1 1 0 0 0 50.071 39.324L46.794 36.083 48.209 34.633 51.486 37.912A1.03 1.03 0 0 0 52.9 37.911L55.551 35.198 55.577 43.394Z" fill="#4ea9f3" data-fill-palette-color="quaternary"></path></g></svg></g></svg></g></svg></g></svg></g><g></g></svg></g><defs></defs></svg><rect width="253.47576923030962" height="247.2" fill="none" stroke="none" visibility="hidden"></rect></g></svg></g></svg>